# xmcd CD database file
#
# Track frame offsets:
#	150
#	11400
#	23325
#	36290
#	46836
#	59361
#	71218
#	84080
#	95548
#	105962
#	114551
#	126326
#	139133
#	149428
#	160726
#	171081
#	184732
#	194658
#	208833
#	222030
#
# Disc length: 3130 seconds
#
# Revision: 1
# Processed by: cddbd v1.5.2PL0 Copyright (c) Steve Scherf et al.
# Submitted via: CDex 1.51
#
DISCID=170c3814
DTITLE=Various Artist - Country CD1
DYEAR=2009
DGENRE=Country
TTITLE0=Don Gibson - Oh Lonesome Me
TTITLE1=Jim Reeves - Yonder Comes A Sucker
TTITLE2=Johnny Cash - Folsom Prison Blues
TTITLE3=Hank Thompson - Rockin' In The Congo
TTITLE4=Hank Williams - Move It On Over
TTITLE5=Tennessee Ernie Ford - Sixteen Tons
TTITLE6=Hank Snow - I'm Moving On
TTITLE7=Frankie Laine - Mule Train
TTITLE8=Johnny Horton - I'm Ready If You Re Willing
TTITLE9=Don Gibson - Blue Blue Day
TTITLE10=Hank Williams - Kaw-Liga
TTITLE11=Jim Reeves - Four Walls
TTITLE12=Johnny Cash - Big River
TTITLE13=Sonny James - Young Love
TTITLE14=Hank Snow - Spanish Fireball
TTITLE15=Bobby Bare - All American Boy
TTITLE16=George "Thumper" Jones - Rock It
TTITLE17=The Everly Brothers - That Silver-Haired Daddy Of Mine
TTITLE18=Hank Williams - Jambalaya
TTITLE19=Jim Reeves - Bimbo
EXTD=YEAR: 2009
EXTT0=
EXTT1=
EXTT2=
EXTT3=
EXTT4=
EXTT5=
EXTT6=
EXTT7=
EXTT8=
EXTT9=
EXTT10=
EXTT11=
EXTT12=
EXTT13=
EXTT14=
EXTT15=
EXTT16=
EXTT17=
EXTT18=
EXTT19=
PLAYORDER=
